<?xml version="1.0" encoding="utf-8"?>
<!-- Generator: Adobe Illustrator 21.0.0, SVG Export Plug-In . SVG Version: 6.00 Build 0)  -->
<svg version="1.1" id="Layer_1"
  xmlns="http://www.w3.org/2000/svg"
  xmlns:xlink="http://www.w3.org/1999/xlink" x="0px" y="0px" viewBox="0 0 1775.3 1775.3" style="enable-background:new 0 0 1775.3 1775.3;" xml:space="preserve">
  <style type="text/css">
	.st0{fill:#F8BE05;}
	.st1{fill:#242222;}
	.st2{fill:#FFFFFF;}
  </style>
  <g>
    <path class="st0" d="M1754.4,884l-0.1-261.2c0-40.1-3-78.7-8.8-114.6c-14.6-89.7-48.7-168.3-98.7-227.2
		c-66.8-78.7-166.1-128.7-279.6-140.9c-95.8-10.3-192.7-9.8-286.5-9.3l-446.3,2c-85.2,0.3-184.2,3.4-279.6,37.1
		c-73.8,26-139.3,67.7-189.4,120.4c-26.8,28.2-49.8,60.1-69.3,95.3l-2,2.3l-1.3,3.7c-14.3,26.7-26.7,55.3-36.7,85.7
		C33.4,546.5,21.8,625.1,21.8,711L21.8,938c0,139.5,38.4,248.7,114.1,324.6c75.7,75.9,184.6,114.3,323.8,114.3
		c79.3,0,82.4,0.2,129.1,0.5l84,0.5c78.4,0.5,179.4,0.1,300.2-1.2l7.7-0.1c147,0,255,44.3,339.9,139.5
		c45.6,51.1,104.9,78.1,171.5,78.1c26.6,0,54.4-4.3,82.6-12.9c90.1-27.3,148.6-92.5,169-188.7c7-32.7,10.3-69.5,10.4-115.6
		C1754.6,1075.7,1754.5,999.4,1754.4,884"/>
    <polygon class="st1" points="1002.7,551.1 1025.9,551.1 1025.9,412.5 989.3,412.5 989.3,441.8 959,441.8 959,383.8 1129,383.8 
		1129,441.8 1098.7,441.8 1098.7,412.5 1061.8,412.5 1061.8,551.1 1085.3,551.1 1085.3,577.9 1002.7,577.9 	"/>
    <path class="st1" d="M1139.9,552h20.2V409.8h-21.6v-26h56.3v67.8c0,6.8-0.8,11.8-0.8,11.8h0.5c6.8-13.4,24.1-28.2,48.1-28.2
		c30.9,0,48.7,16.1,48.7,53V552h20.2v26h-54.9v-82.6c0-17-4.4-28.4-21.9-28.4c-24.6,0-39.9,21.3-39.9,47v38h20v26h-74.9V552z"/>
    <path class="st1" d="M1417.7,492.6c-0.5-19.1-12.3-30.6-27.1-30.6c-17.8,0-30.4,12.3-33.6,30.6H1417.7z M1391.4,435.2
		c40.2,0,62.1,29.3,62.1,66.2c0,4.1-0.8,11.8-0.8,11.8h-96.5c2.2,25.7,20.8,38.8,41.8,38.8c22.7,0,40.5-14.8,40.5-14.8l13.4,24.6
		c0,0-21.3,19.4-56.3,19.4c-46.2,0-74.9-33.4-74.9-73C1320.6,465.3,1349.6,435.2,1391.4,435.2"/>
    <path class="st1" d="M408.7,774.1v14.5c0,12.6,15.9,20,34.2,20c19.7,0,33.6-8.5,33.6-24.1c0-19.7-22.1-26-44.6-34.7
		c-26-9.8-51.4-21.6-51.4-56.3c0-39.1,31.7-54.1,65.1-54.1c30.6,0,61.5,11.8,61.5,34.2V699h-32.5v-13.1c0-9.8-14.5-15-29-15
		c-15.9,0-29,6.6-29,21.3c0,17.8,18,24.1,38.3,31.7c29,10.4,58,21.9,58,58.2c0,39.6-33.4,58-70,58c-32.3,0-66.7-14.5-66.7-43.7
		v-22.1H408.7z"/>
    <path class="st1" d="M546.2,723.3h-21.3v-26h22.4v-38h33.6v38h31.7v26h-31.7v58.8c0,23.8,18,27.1,27.9,27.1c3.8,0,6.3-0.3,6.3-0.3
		v28.4c0,0-4.4,0.8-10.7,0.8c-19.7,0-58.2-5.7-58.2-52.5V723.3z"/>
    <path class="st1" d="M634.9,810.8h20.2v-81.5c0-3.8-2.2-6-6-6h-15.6v-26h36.4c12.3,0,18.6,5.2,18.6,17v8.2c0,5.2-0.5,8.8-0.5,8.8
		h0.5c6.3-20,23-35.8,44.3-35.8c3.3,0,6.3,0.5,6.3,0.5v34.2c0,0-3.6-0.5-8.5-0.5c-28.2,0-40.7,24.6-40.7,50.9v30.3h20v26h-74.9
		V810.8z"/>
    <path class="st1" d="M799.6,814.1c18.9,0,32.3-20.2,32.3-37.7v-4.6h-5.7c-13.7,0-46.7,2.2-46.7,23.2
		C779.4,805.3,786.8,814.1,799.6,814.1 M822.8,750.6h8.8V746c0-17.8-11.2-24.1-25.7-24.1c-20.8,0-39.4,13.4-39.4,13.4l-12.9-24.1
		c0,0,21.6-17.2,55.2-17.2c37.5,0,57.4,19.4,57.4,55v55.8c0,4.1,2.2,6,6,6h12.6v26h-32.8c-12.9,0-17.8-6.8-17.8-14.8v-1.6
		c0-4.4,0.8-7.1,0.8-7.1h-0.5c0,0-11.8,26.8-44,26.8c-23.8,0-46.2-13.9-46.2-42.4C744.4,755,800.4,750.6,822.8,750.6"/>
    <path class="st1" d="M908.3,723.3H887v-26h22.4v-38h33.6v38h31.7v26h-31.7v58.8c0,23.8,18,27.1,27.9,27.1c3.8,0,6.3-0.3,6.3-0.3
		v28.4c0,0-4.4,0.8-10.7,0.8c-19.7,0-58.2-5.7-58.2-52.5V723.3z"/>
    <path class="st1" d="M1086.9,751.4c-0.5-19.1-12.3-30.6-27.1-30.6c-17.8,0-30.4,12.3-33.6,30.6H1086.9z M1060.6,694
		c40.2,0,62.1,29.3,62.1,66.2c0,4.1-0.8,11.8-0.8,11.8h-96.5c2.2,25.7,20.8,38.8,41.8,38.8c22.7,0,40.5-14.8,40.5-14.8l13.4,24.6
		c0,0-21.3,19.4-56.3,19.4c-46.2,0-74.9-33.4-74.9-73C989.8,724.1,1018.8,694,1060.6,694"/>
    <path class="st1" d="M1239.7,763.7c0-31.7-15.9-40.2-34.4-40.2c-21.1,0-32.8,15.3-32.8,38.8c0,24.3,12.6,42.4,35,42.4
		C1223.8,804.8,1239.7,795.2,1239.7,763.7 M1199.5,865.7c21.3,0,39.4-9.3,39.4-35V822c0-3.3,0.5-7.4,0.5-7.4h-0.5
		c-8.2,12.3-20.2,19.4-38.8,19.4c-40.2,0-62.6-32.3-62.6-70.5c0-38.3,21.6-69.4,61.8-69.4c16.7,0,35.5,6.3,43.2,21.1h0.5
		c0,0-0.5-1.9-0.5-4.6c0-7.4,4.9-13.1,15.9-13.1h34.7v26h-13.4c-3.6,0-6,1.9-6,5.5v99.5c0,47.8-37.2,65.9-73.5,65.9
		c-17.5,0-36.1-4.9-49.8-12l10.7-25.7C1160.9,856.4,1178.2,865.7,1199.5,865.7"/>
    <path class="st1" d="M1336.7,865.7c11.2,0,20.2-6,24.6-16.1l3.8-8.8l-47.8-117.6h-16.7v-26h68.6v26h-16.4l25.4,70.5
		c2.5,6.8,3,14.5,3,14.5h0.8c0,0,1.1-7.7,3.8-14.5l25.2-70.5H1395v-26h65.9v26H1445l-51.4,131.5c-10.7,27.6-31.4,39.4-55.2,39.4
		c-20.2,0-33.9-9.6-33.9-9.6l11.2-25.4C1315.7,859.2,1323.9,865.7,1336.7,865.7"/>
    <path class="st1" d="M908.4,983h-23.2v-27.1h82.6V983h-23.5v94c0,10.9,2.5,20.8,6.6,27.6c6.8,10.9,20.2,17.2,36.6,17.2
		c16.1,0,29.3-6,36.4-17.5c4.4-7.4,6.6-16.4,6.6-27.6V983h-23.2v-27.1h82.3V983h-23.2v94c0,18.9-5.2,36.4-14.2,48.7
		c-14.2,18.6-38.6,27.6-64.5,27.6c-27.6,0-51.1-10.1-64.5-27.3c-10.1-12.6-14.5-29.5-14.5-48.9V983z"/>
    <path class="st1" d="M1098.4,1124h20.2v-81.5c0-3.8-2.2-6-6-6H1097v-26h36.6c12.3,0,18,5.7,18,15.6v6.3c0,3-0.5,6-0.5,6h0.5
		c1.6-4.4,16.4-31.2,51.4-31.2c29.8,0,46.7,16.1,46.7,53v63.7h20.2v26h-54.7v-82.6c0-17-4.6-28.4-22.1-28.4
		c-25.2,0-39.9,24.1-39.9,48.4v36.6h20v26h-74.9V1124z"/>
    <path class="st1" d="M1304.4,955.9h35v30.9h-35V955.9z M1284.5,1124h20.2v-87.5h-21.6v-26h56.3V1124h20v26h-74.9V1124z"/>
    <path class="st1" d="M1386.2,1036.6h-21.3v-26h22.4v-38h33.6v38h31.7v26h-31.7v58.8c0,23.8,18,27.1,27.9,27.1
		c3.8,0,6.3-0.3,6.3-0.3v28.4c0,0-4.4,0.8-10.7,0.8c-19.7,0-58.2-5.7-58.2-52.5V1036.6z"/>
    <path class="st2" d="M1521.9,1132.3c0-12.1-9.7-21.9-21.6-21.9c-11.9,0-21.6,9.8-21.6,21.9s9.6,21.9,21.6,21.9
		C1512.2,1154.2,1521.9,1144.4,1521.9,1132.3"/>
  </g>
</svg>
